<svg width="512" height="512" viewBox="0 0 512 512" xmlns="http://www.w3.org/2000/svg">
  <defs>
    <linearGradient id="bg" x1="0" y1="0" x2="0" y2="1">
      <stop offset="0%" stop-color="#120b08" />
      <stop offset="100%" stop-color="#050302" />
    </linearGradient>
    <radialGradient id="glow" cx="50%" cy="50%" r="30%">
      <stop offset="0%" stop-color="#eb9934" stop-opacity="0.35" />
      <stop offset="100%" stop-color="#eb9934" stop-opacity="0" />
    </radialGradient>
  </defs>

  <rect width="512" height="512" fill="url(#bg)" />
  <rect x="28" y="28" width="456" height="456" rx="54" fill="none" stroke="#432f22" stroke-width="6" />
  <rect x="56" y="56" width="400" height="400" rx="44" fill="none" stroke="#f4b458" stroke-opacity="0.78" stroke-width="4" />
  <circle cx="256" cy="258" r="110" fill="url(#glow)" />

  <!-- Clean custom monogram G -->
  <circle cx="184" cy="252" r="55" fill="#ea9935" />
  <circle cx="184" cy="252" r="37" fill="#0a0706" />
  <rect x="198" y="214" width="30" height="76" fill="#0a0706" />
  <rect x="189" y="244" width="49" height="16" rx="8" fill="#ea9935" />

  <!-- Clean custom monogram D -->
  <rect x="256" y="197" width="112" height="112" rx="30" fill="#ea9935" />
  <rect x="274" y="215" width="75" height="76" rx="21" fill="#0a0706" />
  <rect x="256" y="197" width="24" height="112" fill="#ea9935" />

  <!-- Base bar -->
  <rect x="138" y="364" width="236" height="18" rx="9" fill="#ab691d" />
  <rect x="114" y="352" width="18" height="40" rx="6" fill="#ab691d" />
  <rect x="380" y="352" width="18" height="40" rx="6" fill="#ab691d" />
</svg>
